<?xml version="1.0" encoding="utf-8"?>
<!-- Generator: Adobe Illustrator 13.0.1, SVG Export Plug-In  -->
<!DOCTYPE svg PUBLIC "-//W3C//DTD SVG 1.1//EN" "http://www.w3.org/Graphics/SVG/1.1/DTD/svg11.dtd" [
	<!ENTITY ns_flows "http://ns.adobe.com/Flows/1.0/">
]>
<svg version="1.1"
	 xmlns="http://www.w3.org/2000/svg" xmlns:xlink="http://www.w3.org/1999/xlink" xmlns:a="http://ns.adobe.com/AdobeSVGViewerExtensions/3.0/"
	 x="0px" y="0px" width="138px" height="51px" viewBox="-0.85 -0.857 138 51" enable-background="new -0.85 -0.857 138 51"
	 xml:space="preserve">
<defs>
</defs>
<rect x="62.051" y="5.98" fill-rule="evenodd" clip-rule="evenodd" fill="#1A3460" width="13.414" height="21.709"/>
<rect x="62.722" y="6.631" fill-rule="evenodd" clip-rule="evenodd" fill="#FFFFFF" width="12.074" height="20.408"/>
<rect x="62.974" y="6.919" fill-rule="evenodd" clip-rule="evenodd" fill="#04213E" width="11.57" height="19.833"/>
<rect x="63.183" y="7.127" fill-rule="evenodd" clip-rule="evenodd" fill="#FFFFFF" width="11.151" height="19.416"/>
<path fill-rule="evenodd" clip-rule="evenodd" fill="#04213E" d="M72.13,17.259h-2.113v5.133l-3.515,3.744v-8.876h-2.386
	l1.362-1.934h1.024c0-0.446-0.002-0.892-0.001-1.338c0.001-0.277,0.004-0.556,0.003-0.835c0-0.175-0.002-0.352-0.003-0.527
	c0-0.069,0-0.138,0-0.207c0.002-0.154,0.009-0.308,0.023-0.461c0.045-0.496,0.16-0.988,0.353-1.449
	c0.091-0.217,0.199-0.427,0.328-0.624c0.194-0.295,0.435-0.563,0.716-0.778c0.275-0.21,0.588-0.373,0.918-0.48
	c0.256-0.083,0.521-0.133,0.788-0.16c0.451-0.046,0.91-0.026,1.351,0.078c0.441,0.104,0.864,0.294,1.223,0.571
	c0.25,0.193,0.468,0.43,0.647,0.69c0.156,0.226,0.283,0.47,0.378,0.726c0.102,0.274,0.167,0.563,0.182,0.854
	c0.013,0.273-0.021,0.549-0.077,0.818c-0.07,0.329-0.176,0.65-0.347,0.938c-0.141,0.236-0.326,0.451-0.55,0.612
	c-0.129,0.093-0.271,0.167-0.419,0.223c-0.127,0.047-0.259,0.079-0.393,0.099c-0.235,0.034-0.475,0.028-0.71-0.005
	c-0.232-0.034-0.461-0.094-0.673-0.194c-0.077-0.037-0.152-0.078-0.223-0.126v1.579h3.52L72.13,17.259z"/>
<path fill-rule="evenodd" clip-rule="evenodd" fill="#FFFFFF" d="M72.054,17.112h-2.186v5.222l-3.218,3.427v-8.649h-2.249
	l1.153-1.64h1.095c0-0.818,0-1.635,0-2.453c0-0.119,0-0.237,0-0.356c0-0.118-0.002-0.237,0.001-0.355
	c0.007-0.308,0.044-0.614,0.107-0.915c0.069-0.327,0.17-0.649,0.31-0.953c0.171-0.373,0.403-0.721,0.699-1.007
	c0.173-0.167,0.369-0.313,0.579-0.431c0.234-0.132,0.486-0.229,0.746-0.295c0.328-0.084,0.668-0.119,1.007-0.116
	c0.402,0.003,0.804,0.059,1.181,0.192c0.342,0.119,0.664,0.302,0.938,0.536c0.43,0.367,0.744,0.861,0.916,1.399
	c0.063,0.201,0.108,0.409,0.122,0.619c0.006,0.09,0.006,0.18,0.002,0.27c-0.008,0.184-0.033,0.367-0.069,0.547
	c-0.059,0.288-0.147,0.569-0.286,0.828c-0.093,0.173-0.208,0.334-0.348,0.474c-0.18,0.179-0.4,0.317-0.642,0.398
	c-0.195,0.065-0.404,0.093-0.612,0.094c-0.182,0-0.361-0.019-0.539-0.057c-0.209-0.044-0.414-0.114-0.597-0.225
	c-0.108-0.065-0.208-0.145-0.297-0.235v2.042h3.377L72.054,17.112z"/>
<path fill-rule="evenodd" clip-rule="evenodd" fill="#1A3460" d="M71.894,16.798h-2.339v5.412l-2.59,2.758v-8.17h-1.959l0.714-1.013
	h1.246c0-1.138,0-2.276,0-3.414c0-0.179,0.002-3.579,3.252-3.465c2.158,0.075,2.772,1.897,2.729,2.661
	c-0.043,0.765-0.354,2.157-1.774,2.063c-1.306-0.087-1.414-0.95-1.414-1.412c0-1.485,1.32-1.145,1.391-1.128
	c-0.003-0.008-0.049-0.169-0.47-0.169c-0.42,0-1.123,0.285-1.123,1.638c0,1.075,0,2.15,0,3.225h3.075L71.894,16.798z"/>
<polygon fill-rule="evenodd" clip-rule="evenodd" fill="#D51F29" points="63.548,7.38 68.599,7.38 63.548,12.728 "/>
<polygon fill-rule="evenodd" clip-rule="evenodd" fill="#D51F29" points="73.969,26.291 68.918,26.291 73.969,20.943 "/>
<path fill-rule="evenodd" clip-rule="evenodd" fill="#04213E" d="M69.625,1.088C69.756,0.532,69.333,0,68.759,0
	c-0.574,0-0.998,0.532-0.867,1.088c-0.775-0.645-1.729-0.21-1.729,0.798c-0.12-0.041-0.249-0.056-0.375-0.045
	c-0.089,0.008-0.176,0.029-0.258,0.064c-0.043,0.019-0.085,0.042-0.123,0.069c-0.067,0.049-0.125,0.11-0.169,0.18
	c-0.054,0.086-0.09,0.183-0.104,0.281c-0.014,0.101-0.005,0.203,0.015,0.302c0.021,0.103,0.057,0.203,0.096,0.3
	c0.045,0.11,0.096,0.218,0.151,0.323c0.112,0.212,0.243,0.416,0.382,0.612c0.123,0.174,0.252,0.342,0.385,0.507
	c0.067,0.083,0.136,0.167,0.209,0.245v0.256c-0.055,0-0.071,0.032-0.09,0.075c-0.018,0.039-0.025,0.078-0.025,0.12
	s0.007,0.081,0.025,0.119c0.019,0.042,0.036,0.074,0.09,0.074v0.257c1.624-0.345,3.148-0.345,4.771,0V5.369
	c0.055,0,0.071-0.032,0.091-0.074c0.018-0.038,0.024-0.077,0.024-0.119s-0.007-0.081-0.024-0.12
	c-0.02-0.042-0.036-0.075-0.091-0.075V4.726c0.073-0.078,0.142-0.161,0.209-0.245c0.134-0.166,0.263-0.333,0.386-0.507
	c0.139-0.196,0.27-0.4,0.382-0.612c0.056-0.105,0.106-0.212,0.151-0.323c0.039-0.097,0.074-0.197,0.096-0.3
	c0.021-0.099,0.029-0.202,0.016-0.302c-0.014-0.099-0.05-0.195-0.104-0.281c-0.044-0.069-0.102-0.131-0.169-0.18
	c-0.038-0.028-0.08-0.05-0.123-0.069c-0.082-0.036-0.169-0.057-0.258-0.064c-0.126-0.011-0.255,0.004-0.375,0.045
	C71.354,0.875,70.405,0.448,69.625,1.088z"/>
<path fill-rule="evenodd" clip-rule="evenodd" fill="#FFFFFF" d="M70.635,1.028c1.442,0.723-0.617,3.303-0.726,3.438
	c-0.017,0.021-0.032,0.04-0.049,0.061c-0.322-0.031-0.645-0.048-0.969-0.053c-0.096-0.916,0.024-1.748,0.382-2.598
	c-0.17,0.06-0.336,0.087-0.516,0.083c-0.18,0.003-0.346-0.023-0.515-0.083c0.357,0.85,0.477,1.682,0.381,2.598
	c-0.324,0.004-0.646,0.021-0.969,0.053c-0.016-0.021-0.032-0.04-0.048-0.061c-0.108-0.136-2.168-2.716-0.727-3.438
	c0.329-0.115,0.742,0.066,0.961,0.296c0.263,0.275,0.51,0.447,0.916,0.447s0.653-0.172,0.916-0.447
	C69.894,1.095,70.307,0.913,70.635,1.028z"/>
<ellipse transform="matrix(0.9949 -0.1013 0.1013 0.9949 -0.1573 6.8723)" fill-rule="evenodd" clip-rule="evenodd" fill="#FFFFFF" cx="67.602" cy="4.985" rx="0.231" ry="0.146"/>
<polygon fill-rule="evenodd" clip-rule="evenodd" fill="#D51F29" points="67.883,4.704 68.419,4.675 68.161,4.875 "/>
<path fill-rule="evenodd" clip-rule="evenodd" fill="#FFFFFF" d="M66.543,4.69c-0.187-0.194-1.459-1.636-1.234-2.277
	c0.154-0.439,0.636-0.429,0.877-0.325c0.263,0.901,0.684,1.729,1.285,2.458C67.123,4.583,66.886,4.621,66.543,4.69z"/>
<polygon fill-rule="evenodd" clip-rule="evenodd" fill="#D51F29" points="67.911,5.213 68.446,5.185 68.168,5.015 "/>
<polygon fill-rule="evenodd" clip-rule="evenodd" fill="#D51F29" points="66.727,4.85 67.257,4.767 67.021,4.991 "/>
<polygon fill-rule="evenodd" clip-rule="evenodd" fill="#D51F29" points="66.805,5.353 67.335,5.273 67.042,5.13 "/>
<path fill-rule="evenodd" clip-rule="evenodd" fill="#D51F29" d="M68.526,4.358c-0.281,0.006-0.561,0.021-0.841,0.047
	c-0.014-0.018-0.028-0.036-0.042-0.055c-0.093-0.123-1.858-2.469-0.667-3.067c0.266-0.092,0.763-0.014,1.105,0.708
	c0.459,0.969,0.446,2.238,0.445,2.305C68.526,4.316,68.526,4.337,68.526,4.358z"/>
<path fill-rule="evenodd" clip-rule="evenodd" fill="#D51F29" d="M66.578,4.563c-0.001,0-0.001-0.001-0.002-0.001
	c-0.107-0.113-0.205-0.235-0.301-0.358c-0.167-0.214-0.328-0.432-0.47-0.661c-0.072-0.118-0.14-0.239-0.2-0.363
	c-0.051-0.106-0.096-0.213-0.126-0.326c-0.019-0.067-0.03-0.138-0.032-0.208c-0.001-0.038,0.002-0.077,0.011-0.114
	c0.012-0.05,0.036-0.099,0.069-0.141c0.048-0.06,0.114-0.106,0.187-0.13c0.073-0.025,0.153-0.029,0.231-0.023
	c0.045,0.004,0.091,0.011,0.134,0.022c0.295,0.797,0.687,1.513,1.2,2.191C67.044,4.481,66.81,4.519,66.578,4.563z"/>
<path fill-rule="evenodd" clip-rule="evenodd" fill="#FFFFFF" d="M70.973,4.69c0.187-0.194,1.459-1.636,1.234-2.277
	c-0.154-0.439-0.637-0.429-0.877-0.325c-0.264,0.901-0.685,1.729-1.285,2.458C70.393,4.583,70.629,4.621,70.973,4.69z"/>
<path fill-rule="evenodd" clip-rule="evenodd" fill="#D51F29" d="M70.94,4.563L70.94,4.563c0.108-0.114,0.206-0.236,0.302-0.359
	c0.167-0.214,0.328-0.432,0.47-0.661c0.072-0.118,0.141-0.239,0.2-0.363c0.051-0.106,0.097-0.213,0.126-0.326
	c0.019-0.067,0.031-0.138,0.032-0.208c0.001-0.038-0.002-0.077-0.012-0.114c-0.012-0.05-0.036-0.099-0.069-0.141
	c-0.047-0.06-0.113-0.106-0.187-0.13c-0.073-0.025-0.152-0.029-0.23-0.023c-0.046,0.004-0.091,0.011-0.135,0.022
	c-0.295,0.797-0.687,1.513-1.199,2.191C70.473,4.481,70.707,4.519,70.94,4.563z"/>
<path fill-rule="evenodd" clip-rule="evenodd" fill="#D51F29" d="M68.992,4.358c0.28,0.006,0.561,0.021,0.841,0.047
	c0.014-0.018,0.027-0.036,0.041-0.055c0.093-0.123,1.858-2.469,0.667-3.067c-0.266-0.092-0.763-0.014-1.105,0.708
	c-0.459,0.969-0.445,2.238-0.444,2.305C68.991,4.316,68.991,4.337,68.992,4.358z"/>
<polygon fill-rule="evenodd" clip-rule="evenodd" fill="#D51F29" points="70.712,5.353 70.182,5.273 70.474,5.13 "/>
<polygon fill-rule="evenodd" clip-rule="evenodd" fill="#D51F29" points="70.79,4.85 70.259,4.767 70.497,4.991 "/>
<polygon fill-rule="evenodd" clip-rule="evenodd" fill="#D51F29" points="69.606,5.213 69.071,5.185 69.348,5.015 "/>
<polygon fill-rule="evenodd" clip-rule="evenodd" fill="#D51F29" points="69.633,4.704 69.098,4.675 69.356,4.875 "/>
<ellipse transform="matrix(-0.9949 -0.1012 0.1012 -0.9949 138.966 17.0186)" fill-rule="evenodd" clip-rule="evenodd" fill="#FFFFFF" cx="69.915" cy="4.985" rx="0.232" ry="0.146"/>
<path fill-rule="evenodd" clip-rule="evenodd" fill="#FFFFFF" d="M68.759,5.092c0.098,0,0.287-0.032,0.287-0.168
	s-0.189-0.167-0.288-0.167s-0.288,0.032-0.287,0.168C68.472,5.061,68.661,5.092,68.759,5.092z"/>
<circle fill-rule="evenodd" clip-rule="evenodd" fill="#FFFFFF" cx="68.758" cy="0.893" r="0.598"/>
<circle fill-rule="evenodd" clip-rule="evenodd" fill="#FFFFFF" cx="66.573" cy="5.134" r="0.115"/>
<circle fill-rule="evenodd" clip-rule="evenodd" fill="#FFFFFF" cx="70.944" cy="5.134" r="0.115"/>
<path fill-rule="evenodd" clip-rule="evenodd" fill="#1A3460" d="M127.904,43.974h-2.734l1.941-2.142h2.732L127.904,43.974z
	 M78.025,43.974h-2.732l1.939-2.142h2.734L78.025,43.974z M130.578,43.974l2.713-2.996h-8.08l-2.715,2.996h-5.465
	c0.625-0.692,1.252-1.383,1.879-2.075c0.158-0.175,0.369-0.288,0.305-0.592c-0.064-0.314-0.27-0.329-0.539-0.329h-7.012
	l-2.715,2.996h-5.881l2.713-2.996h-2.674l-2.713,2.996h-5.467c0.477-0.527,0.953-1.053,1.432-1.58
	c0.119-0.132,0.238-0.263,0.357-0.396c0.119-0.131,0.258-0.241,0.35-0.4c0.113-0.195,0.096-0.33-0.061-0.493
	c-0.15-0.158-0.316-0.127-0.498-0.127h-4.273l0.674-0.745h-2.674c-0.613,0.677-1.227,1.354-1.84,2.031
	c-0.635,0.7-1.268,1.259-2.217,1.539c-0.918,0.271-1.816,0.17-2.73,0.17h-2.748l2.713-2.996H69.883
	c0.529-0.584,1.059-1.169,1.588-1.753c0.529-0.584,1.008-1.199,1.677-1.659c1.49-1.022,2.973-0.835,4.573-0.835l1.102-1.216h-3.441
	c-1.298,0-2.132-0.02-3.342,0.617c-1.073,0.564-1.753,1.451-2.524,2.302c-0.768,0.848-1.536,1.696-2.305,2.544h-2.855l-0.773,0.854
	h2.855l-1.94,2.142h-6.292c0.626-0.692,1.252-1.383,1.879-2.075c0.159-0.175,0.371-0.288,0.306-0.592
	c-0.066-0.314-0.271-0.329-0.54-0.329h-7.013l-2.713,2.996h-5.883l2.714-2.996h-2.674l-2.713,2.996h-5.466
	c0.626-0.692,1.252-1.383,1.879-2.075c0.159-0.175,0.371-0.288,0.306-0.592c-0.066-0.314-0.271-0.329-0.54-0.329h-7.013
	l-2.714,2.996h-5.882l2.714-2.996h-2.674l-2.713,2.996h-5.467c0.477-0.527,0.954-1.053,1.431-1.58
	c0.12-0.132,0.239-0.263,0.358-0.396c0.119-0.131,0.258-0.241,0.35-0.4c0.112-0.195,0.095-0.33-0.061-0.493
	c-0.152-0.158-0.316-0.127-0.498-0.127h-4.274l0.674-0.745H9.305l-3.388,3.74H0.923L0,44.994h4.993l-4.268,4.711h2.674l7.132-7.873
	h2.733c-0.634,0.699-1.268,1.399-1.902,2.099c-0.083,0.09-0.398,0.414-0.432,0.553c-0.059,0.247,0.118,0.49,0.374,0.509
	c0.473,0.035,0.942,0.001,1.414,0.001c1.895,0,3.789,0,5.683,0c3.79,0,7.58,0,11.37,0l2.864-3.162h2.733
	c-0.634,0.699-1.268,1.399-1.902,2.099c-0.082,0.09-0.398,0.414-0.432,0.553c-0.06,0.247,0.118,0.49,0.374,0.509
	c0.473,0.035,0.943,0.001,1.414,0.001h17.053l2.864-3.162h2.733l-2.065,2.279c-0.182,0.202-0.402,0.347-0.23,0.665
	c0.17,0.314,0.427,0.218,0.69,0.218h7.707l-4.268,4.711h2.674l7.132-7.873h5.449c-0.677,0.746-1.354,1.493-2.029,2.24
	c-0.176,0.193-0.412,0.32-0.29,0.65c0.124,0.335,0.376,0.271,0.645,0.271h10.61c1.01,0,2.02,0.049,3.029-0.009
	c2.51-0.143,3.488-1.552,4.938-3.152h2.732c-0.633,0.699-1.268,1.399-1.902,2.099c-0.082,0.09-0.396,0.414-0.43,0.553
	c-0.061,0.247,0.117,0.49,0.373,0.509c0.473,0.035,0.941,0.001,1.414,0.001c1.893,0,3.787,0,5.682,0c3.789,0,7.58,0,11.369,0
	l2.865-3.162h2.732c-0.73,0.806-1.461,1.612-2.191,2.418c-0.201,0.224-0.227,0.538,0.066,0.694c0.123,0.066,0.686,0.049,0.807,0.049
	h1.625c2.182,0,4.363,0,6.543,0c4.359,0,8.719,0,13.078,0l0.924-1.02H130.578z"/>
<polygon fill-rule="evenodd" clip-rule="evenodd" fill="#1A3460" points="24.555,38.354 27.229,38.354 26.116,39.582 23.442,39.582 
	"/>
<polygon fill-rule="evenodd" clip-rule="evenodd" fill="#1A3460" points="107.045,39.582 108.158,38.354 105.484,38.354 
	104.371,39.582 "/>
<polygon fill-rule="evenodd" clip-rule="evenodd" fill="#1A3460" points="49.332,38.354 46.658,38.354 45.545,39.582 48.219,39.582 
	"/>
</svg>
